/* XPM */
static char * max_press_xpm[] = {
"20 20 4 1",
" 	c None",
".	c #212121",
"+	c #4CAF50",
"@	c #FFFFFF",
".++++++++++++++++++.",
"++++++++++++++++++++",
"++++++++++++++++++++",
"++++++++++++++++++++",
"+++++@@@@@@@@@@+++++",
"++++@@@@@@@@@@@@++++",
"++++@++++++++++@++++",
"++++@++++++++++@++++",
"++++@++++++++++@++++",
"++++@++++++++++@++++",
"++++@++++++++++@++++",
"++++@++++++++++@++++",
"++++@++++++++++@++++",
"++++@++++++++++@++++",
"++++@++++++++++@++++",
"+++++@@@@@@@@@@+++++",
"++++++++++++++++++++",
"++++++++++++++++++++",
"++++++++++++++++++++",
".++++++++++++++++++."};
