/* XPM */
static char * min_press_xpm[] = {
"20 20 4 1",
" 	c None",
".	c #212121",
"+	c #FFC107",
"@	c #FFFFFF",
".++++++++++++++++++.",
"++++++++++++++++++++",
"++++++++++++++++++++",
"++++++++++++++++++++",
"++++++++++++++++++++",
"++++++++++++++++++++",
"++++++++++++++++++++",
"++++++++++++++++++++",
"++++++++++++++++++++",
"++++++++++++++++++++",
"++++++++++++++++++++",
"++++++++++++++++++++",
"++++++++++++++++++++",
"++++++++++++++++++++",
"++++@@@@@@@@@@@@++++",
"++++@@@@@@@@@@@@++++",
"++++++++++++++++++++",
"++++++++++++++++++++",
"++++++++++++++++++++",
".++++++++++++++++++."};
