/* XPM */
static char * min_unfocus_xpm[] = {
"20 20 3 1",
" 	c None",
".	c #212121",
"+	c #9E9E9E",
"....................",
"....................",
"....................",
"....................",
"....................",
"....................",
"....................",
"....................",
"....................",
"....................",
"....................",
"....................",
"....................",
"....................",
"....++++++++++++....",
"....++++++++++++....",
"....................",
"....................",
"....................",
"...................."};
