/* XPM */
static char * close_press_xpm[] = {
"20 20 4 1",
" 	c None",
".	c #212121",
"+	c #F44336",
"@	c #FFFFFF",
"....................",
"..++++++++++++++++..",
".++++++++++++++++++.",
".++++++++++++++++++.",
".+++@++++++++++@+++.",
".++++@++++++++@++++.",
".+++++@++++++@+++++.",
".++++++@++++@++++++.",
".+++++++@++@+++++++.",
".++++++++@@++++++++.",
".++++++++@@++++++++.",
".+++++++@++@+++++++.",
".++++++@++++@++++++.",
".+++++@++++++@+++++.",
".++++@++++++++@++++.",
".+++@++++++++++@+++.",
".++++++++++++++++++.",
".++++++++++++++++++.",
"..++++++++++++++++..",
"...................."};
