/* XPM */
static char * window_focus_xpm[] = {
"64 28 3 1",
" 	c None",
".	c #212121",
"+	c #009688",
"................................................................",
"................................................................",
"................................................................",
"................................................................",
"................................................................",
"................................................................",
"................................................................",
"................................................................",
"................................................................",
"................................................................",
"................................................................",
"................................................................",
"................................................................",
"................................................................",
"................................................................",
"................................................................",
"................................................................",
"................................................................",
"................................................................",
"................................................................",
"................................................................",
"................................................................",
"................................................................",
"................................................................",
"................................................................",
"................................................................",
"................................................................",
"++++++++++++++++++++++++++++++++++++++++++++++++++++++++++++++++"};
